<?xml version="1.0" encoding="utf-8"?>
<!-- Generator: Adobe Illustrator 19.2.1, SVG Export Plug-In . SVG Version: 6.00 Build 0)  -->
<svg version="1.1" id="Layer_1" xmlns="http://www.w3.org/2000/svg" xmlns:xlink="http://www.w3.org/1999/xlink" x="0px" y="0px"
	 viewBox="0 0 20 20" style="enable-background:new 0 0 20 20;" xml:space="preserve">
<style type="text/css">
	.st0{fill:#2C892C;}
	.st1{fill:#FFFFFF;}
</style>
<g>
	<path class="st0" d="M10,19.5c-5.2,0-9.5-4.3-9.5-9.5S4.8,0.5,10,0.5s9.5,4.3,9.5,9.5S15.2,19.5,10,19.5z"/>
	<path class="st1" d="M10,1c5,0,9,4,9,9s-4,9-9,9s-9-4-9-9S5,1,10,1 M10,0C4.5,0,0,4.5,0,10s4.5,10,10,10s10-4.5,10-10S15.5,0,10,0
		L10,0z"/>
</g>
<path class="st1" d="M8.2,15.5l-3.7-4.3c-0.2-0.2-0.2-0.5,0-0.7c0.2-0.2,0.5-0.2,0.7,0l2.9,3.3l6.7-9.1c0.2-0.2,0.5-0.3,0.7-0.1
	c0.2,0.2,0.3,0.5,0.1,0.7L8.2,15.5z"/>
</svg>
